<svg xmlns="http://www.w3.org/2000/svg" width="64" height="64" shape-rendering="geometricPrecision" text-rendering="geometricPrecision" image-rendering="optimizeQuality" fill-rule="evenodd" clip-rule="evenodd" viewBox="0 0 640 640"><path d="M320-.012C143.529-.012-.012 143.482-.012 320S143.482 640.012 320 640.012 640.012 496.494 640.012 320 496.494-.012 320-.012zm0 597.244c-28.63 0-56.115-4.346-82.123-12.366 11.232-18.355 28.24-48.627 34.488-72.639 3.355-13.004 17.233-65.883 17.233-65.883 9 17.233 35.528 31.879 63.485 31.879 83.635 0 143.872-76.867 143.872-172.514 0-91.643-74.753-160.112-170.872-160.112-119.647 0-183.132 80.351-183.132 167.766 0 40.642 21.638 91.241 56.245 107.352 5.244 2.527 7.996 1.358 9.236-3.756.874-3.886 5.634-22.654 7.748-31.477.638-2.776.366-5.256-1.866-7.996-11.48-13.89-20.646-39.52-20.646-63.249 0-61.123 46.253-120.356 125.128-120.356 68.115 0 115.75 46.37 115.75 112.773 0 75.001-37.88 127.005-87.12 127.005-27.248 0-47.634-22.524-40.997-50.115 7.867-33 22.985-68.516 22.985-92.233 0-21.248-11.35-39.012-35.115-39.012-27.874 0-50.114 28.76-50.114 67.37 0 24.473 8.232 41.115 8.232 41.115S224.909 476.911 219.9 498.55c-5.634 24-3.355 57.639-.992 79.513-103.123-40.24-176.246-140.47-176.246-258.003 0-153.12 124.112-277.232 277.232-277.232 153.12 0 277.232 124.112 277.232 277.232 0 153.12-124.112 277.244-277.232 277.244l.106-.07z"/></svg>