<svg xmlns="http://www.w3.org/2000/svg" width="33" height="33" viewBox="141 0 33 33" fill="none">
 
  <circle cx="157.7" cy="16.1" r="15.6" fill="url(#paint6_linear_1_459)" fill-opacity="0.05" stroke="url(#paint7_linear_1_459)"/>
  <path d="M150.921 13.7054C150.921 12.9727 151.049 12.2805 151.302 11.6344C151.543 11.0069 151.901 10.431 152.357 9.93736C152.813 9.45018 153.334 9.02891 153.906 8.68573C154.492 8.33082 155.127 8.06307 155.791 7.89087C156.463 7.71449 157.154 7.62554 157.849 7.62622C158.922 7.62622 159.92 7.85319 160.846 8.30525C161.759 8.74906 162.537 9.43016 163.098 10.2773C163.676 11.1391 163.963 12.1138 163.963 13.2006C163.963 13.8523 163.899 14.4899 163.768 15.1134C163.64 15.7365 163.435 16.3415 163.16 16.915C162.897 17.4702 162.554 17.9833 162.141 18.4379C161.726 18.8852 161.223 19.2423 160.664 19.487C160.057 19.753 159.401 19.8869 158.738 19.8797C158.277 19.8797 157.818 19.7714 157.364 19.5539C156.91 19.3373 156.584 19.0397 156.388 18.6583C156.319 18.9229 156.225 19.3053 156.1 19.8053C155.98 20.3045 155.899 20.6266 155.863 20.7726C155.825 20.9176 155.755 21.1596 155.654 21.4949C155.585 21.7429 155.496 21.9851 155.389 22.2191L155.065 22.8539C154.925 23.1263 154.768 23.3898 154.596 23.6431C154.426 23.8899 154.215 24.1846 153.963 24.5237L153.823 24.5736L153.73 24.4719C153.629 23.4048 153.577 22.7663 153.577 22.5554C153.577 21.9309 153.651 21.2303 153.798 20.4524C153.942 19.6754 154.17 18.6988 154.476 17.5244C154.783 16.3509 154.958 15.6606 155.005 15.4562C154.789 15.0164 154.68 14.4419 154.68 13.7356C154.68 13.1714 154.856 12.6431 155.209 12.1458C155.563 11.6505 156.011 11.4028 156.553 11.4028C156.968 11.4028 157.29 11.5403 157.521 11.8162C157.753 12.0912 157.866 12.4378 157.866 12.8606C157.866 13.3089 157.717 13.9578 157.418 14.8064C157.118 15.6559 156.969 16.2897 156.969 16.7107C156.969 17.1373 157.122 17.4942 157.427 17.7739C157.728 18.0538 158.126 18.2054 158.537 18.1968C158.91 18.1968 159.256 18.112 159.577 17.9416C159.893 17.7761 160.167 17.5398 160.377 17.2512C160.834 16.6243 161.159 15.9116 161.334 15.1558C161.425 14.7583 161.495 14.3807 161.538 14.0256C161.584 13.6687 161.604 13.3315 161.604 13.0113C161.604 11.8369 161.231 10.9215 160.49 10.266C159.745 9.61056 158.775 9.2847 157.581 9.2847C156.224 9.2847 155.09 9.72357 154.181 10.6041C153.271 11.4819 152.813 12.5979 152.813 13.9512C152.813 14.2498 152.858 14.538 152.944 14.8167C153.028 15.0946 153.119 15.3159 153.218 15.4797C153.316 15.6408 153.408 15.7981 153.492 15.9431C153.577 16.0881 153.621 16.1917 153.621 16.2539C153.621 16.4441 153.571 16.6918 153.471 16.9979C153.366 17.304 153.243 17.4565 153.094 17.4565C153.08 17.4565 153.021 17.4462 152.92 17.4245C152.567 17.3194 152.249 17.1228 151.998 16.8547C151.731 16.577 151.52 16.2501 151.377 15.8922C151.235 15.5356 151.124 15.1673 151.046 14.7913C150.961 14.4356 150.919 14.071 150.921 13.7054Z" fill="white" fill-opacity="0.8"/>
  <defs>
    <linearGradient id="paint0_linear_1_459" x1="16.1" y1="0" x2="16.1" y2="32.2" gradientUnits="userSpaceOnUse">
      <stop stop-color="#FEFEFF" stop-opacity="0.29"/>
      <stop offset="1" stop-color="white" stop-opacity="0.4"/>
    </linearGradient>
    <linearGradient id="paint1_linear_1_459" x1="-1.54448" y1="2.15937" x2="35.5021" y2="6.78831" gradientUnits="userSpaceOnUse">
      <stop stop-color="white" stop-opacity="0.08"/>
      <stop offset="1" stop-color="white" stop-opacity="0.07"/>
    </linearGradient>
    <linearGradient id="paint2_linear_1_459" x1="63.3" y1="0" x2="63.3" y2="32.2" gradientUnits="userSpaceOnUse">
      <stop stop-color="#FEFEFF" stop-opacity="0.29"/>
      <stop offset="1" stop-color="white" stop-opacity="0.4"/>
    </linearGradient>
    <linearGradient id="paint3_linear_1_459" x1="45.6555" y1="2.15937" x2="82.7022" y2="6.78831" gradientUnits="userSpaceOnUse">
      <stop stop-color="white" stop-opacity="0.08"/>
      <stop offset="1" stop-color="white" stop-opacity="0.07"/>
    </linearGradient>
    <linearGradient id="paint4_linear_1_459" x1="110.5" y1="0" x2="110.5" y2="32.2" gradientUnits="userSpaceOnUse">
      <stop stop-color="#FEFEFF" stop-opacity="0.29"/>
      <stop offset="1" stop-color="white" stop-opacity="0.4"/>
    </linearGradient>
    <linearGradient id="paint5_linear_1_459" x1="92.8555" y1="2.15937" x2="129.902" y2="6.78831" gradientUnits="userSpaceOnUse">
      <stop stop-color="white" stop-opacity="0.08"/>
      <stop offset="1" stop-color="white" stop-opacity="0.07"/>
    </linearGradient>
    <linearGradient id="paint6_linear_1_459" x1="157.7" y1="0" x2="157.7" y2="32.2" gradientUnits="userSpaceOnUse">
      <stop stop-color="#FEFEFF" stop-opacity="0.29"/>
      <stop offset="1" stop-color="white" stop-opacity="0.4"/>
    </linearGradient>
    <linearGradient id="paint7_linear_1_459" x1="140.056" y1="2.15937" x2="177.102" y2="6.78831" gradientUnits="userSpaceOnUse">
      <stop stop-color="white" stop-opacity="0.08"/>
      <stop offset="1" stop-color="white" stop-opacity="0.07"/>
    </linearGradient>
  </defs>
</svg>